<svg id="Layer_1" data-name="Layer 1" xmlns="http://www.w3.org/2000/svg" viewBox="0 0 342.35 110.8"><defs><style>.cls-1{fill:#fff;}</style></defs><title>logo</title><path class="cls-1" d="M143.46,244.5l-23.27-13.43A29.66,29.66,0,0,0,90.7,231L66.43,244.73A12.4,12.4,0,1,0,78.67,266.3L100.35,254l.1-.05C117.8,243.72,135.05,240.23,143.46,244.5Z" transform="translate(-43.74 -157.12)"/><path class="cls-1" d="M143.16,246.06l-.41-.24a18.53,18.53,0,0,0-8.25-1.6c-7.48,0-16.83,2.61-26.4,7.31a11.64,11.64,0,0,1,3,1.21l21.14,12.2a10.9,10.9,0,0,0,10.9-18.88Z" transform="translate(-43.74 -157.12)"/><path class="cls-1" d="M164.63,219.72a12.35,12.35,0,0,0-4.46-4.48l-21.48-12.62-.1-.07c-17.53-9.9-29.19-23.1-29.69-32.51v26.87a29.68,29.68,0,0,0,14.65,25.59l24.06,14.13a12.41,12.41,0,0,0,17-16.91Z" transform="translate(-43.74 -157.12)"/><path class="cls-1" d="M132.66,197.13a11.58,11.58,0,0,1-.45-3.21v-24.4a10.91,10.91,0,0,0-21.81,0V170C110.84,177.79,119.69,188.38,132.66,197.13Z" transform="translate(-43.74 -157.12)"/><path class="cls-1" d="M61.28,236.44,84.56,223a29.7,29.7,0,0,0,14.83-25.48l.21-27.91a12.4,12.4,0,0,0-23.15-6.28,12.23,12.23,0,0,0-1.65,6.1l-.19,24.92v.12C74.79,214.6,69.18,231.29,61.28,236.44Z" transform="translate(-43.74 -157.12)"/><path class="cls-1" d="M72.87,202.31a11.49,11.49,0,0,1-2.55,2l-21.13,12.2a10.9,10.9,0,0,0,10.9,18.88l.41-.24C67,230.86,71.78,217.91,72.87,202.31Z" transform="translate(-43.74 -157.12)"/><path class="cls-1" d="M226.64,184.45h-38v56.06h21.74v-13.7h16.46c9.67,0,14.95-5.8,14.95-13.37V199.11C241.76,190,237.64,184.45,226.64,184.45ZM220.19,209c0,1.69-.44,2.66-3.22,2.66h-6.62V200.15h6.71c2.69,0,3.13,1.13,3.13,3Z" transform="translate(-43.74 -157.12)"/><path class="cls-1" d="M308.15,211.35a19.06,19.06,0,0,1-5.1,13.45,19.4,19.4,0,0,1-5-13.45v-26.9H276.39v26.9a19.06,19.06,0,0,1-5.1,13.45,19.4,19.4,0,0,1-5-13.45v-26.9H244.62v25.77c0,12.32,7.61,22.47,15.66,30.37l21.3-.08c1.79-1.7,4.11-5.32,5.64-7.09,1.52,1.77,3.75,5.39,5.45,7l21.3.09c9-8.62,15.84-18.69,15.84-31.17V184.45H308.15Z" transform="translate(-43.74 -157.12)"/><path class="cls-1" d="M371,184.45h-38v56.06h21.74v-13.7h16.47c9.66,0,14.94-5.8,14.94-13.37V199.11C386.09,190,382,184.45,371,184.45ZM364.53,209c0,1.69-.45,2.66-3.22,2.66h-6.63V200.15h6.71c2.69,0,3.14,1.13,3.14,3Z" transform="translate(-43.74 -157.12)"/><path class="cls-1" d="M196.54,258.4c-3.37-.73-4.17-1.28-4.17-2.51v0c0-1.05,1-1.9,2.84-1.9a8.33,8.33,0,0,1,4.74,1.65l1.65-2.13a10.25,10.25,0,0,0-6.33-2c-3.47,0-6,1.9-6,4.64v.05c0,2.95,2.09,3.95,5.81,4.78,3.24.68,3.93,1.3,3.93,2.45v0c0,1.19-1.19,2-3.09,2a8.46,8.46,0,0,1-5.51-2.08l-1.84,2a11.33,11.33,0,0,0,7.28,2.56c3.66,0,6.23-1.79,6.23-4.78v-.05C202.12,260.44,200.23,259.23,196.54,258.4Z" transform="translate(-43.74 -157.12)"/><rect class="cls-1" x="162.18" y="94.56" width="3.07" height="16.01"/><path class="cls-1" d="M220.4,258.4c-3.37-.73-4.16-1.28-4.16-2.51v0c0-1.05,1-1.9,2.84-1.9a8.32,8.32,0,0,1,4.73,1.65l1.65-2.13a10.25,10.25,0,0,0-6.33-2c-3.47,0-6,1.9-6,4.64v.05c0,2.95,2.09,3.95,5.81,4.78,3.24.68,3.94,1.3,3.94,2.45v0c0,1.19-1.2,2-3.09,2a8.44,8.44,0,0,1-5.51-2.08l-1.85,2a11.35,11.35,0,0,0,7.28,2.56c3.67,0,6.23-1.79,6.23-4.78v-.05C226,260.44,224.09,259.23,220.4,258.4Z" transform="translate(-43.74 -157.12)"/><polygon class="cls-1" points="184.24 97.17 189.78 97.17 189.78 110.57 192.87 110.57 192.87 97.17 198.4 97.17 198.4 94.56 184.24 94.56 184.24 97.17"/><polygon class="cls-1" points="204.72 103.75 213.46 103.75 213.46 101.24 204.72 101.24 204.72 97.08 214.59 97.08 214.59 94.56 201.65 94.56 201.65 110.57 214.71 110.57 214.71 108.05 204.72 108.05 204.72 103.75"/><polygon class="cls-1" points="226.93 102.13 221.62 94.56 218.35 94.56 218.35 110.57 221.37 110.57 221.37 99.13 226.83 106.64 226.93 106.64 232.44 99.09 232.44 110.57 235.51 110.57 235.51 94.56 232.24 94.56 226.93 102.13"/><path class="cls-1" d="M289.92,251.56l-7.68,16.13h3.14l1.8-3.87h8.25l1.77,3.87h3.24l-7.68-16.13Zm-1.62,9.77,3-6.4,3,6.4Z" transform="translate(-43.74 -157.12)"/><path class="cls-1" d="M309.89,258.4c-3.36-.73-4.16-1.28-4.16-2.51v0c0-1.05,1-1.9,2.84-1.9a8.33,8.33,0,0,1,4.74,1.65l1.64-2.13a10.25,10.25,0,0,0-6.33-2c-3.46,0-6,1.9-6,4.64v.05c0,2.95,2.1,3.95,5.81,4.78,3.24.68,3.94,1.3,3.94,2.45v0c0,1.19-1.2,2-3.09,2a8.46,8.46,0,0,1-5.51-2.08l-1.84,2a11.33,11.33,0,0,0,7.28,2.56c3.66,0,6.23-1.79,6.23-4.78v-.05C315.48,260.44,313.58,259.23,309.89,258.4Z" transform="translate(-43.74 -157.12)"/></svg>